<mxfile host="app.diagrams.net" agent="Mozilla/5.0 (Windows NT 10.0; Win64; x64) AppleWebKit/537.36 (KHTML, like Gecko) Chrome/132.0.0.0 Safari/537.36" version="26.0.11">
  <diagram name="PÃ¡gina-1" id="eJ5r1Z9b5O2gZFpAm8o7">
    <mxGraphModel dx="1434" dy="738" grid="1" gridSize="10" guides="1" tooltips="1" connect="1" arrows="1" fold="1" page="1" pageScale="1" pageWidth="827" pageHeight="1169" math="0" shadow="0">
      <root>
        <mxCell id="0" />
        <mxCell id="1" parent="0" />
        <mxCell id="zpRsEXmZ7y7rmX2nnbqE-2" value="USER" style="swimlane;whiteSpace=wrap;html=1;" vertex="1" parent="1">
          <mxGeometry x="260" width="200" height="220" as="geometry" />
        </mxCell>
        <mxCell id="zpRsEXmZ7y7rmX2nnbqE-3" value="UserId (FK)" style="text;html=1;align=center;verticalAlign=middle;resizable=0;points=[];autosize=1;strokeColor=none;fillColor=none;" vertex="1" parent="zpRsEXmZ7y7rmX2nnbqE-2">
          <mxGeometry x="-5" y="38" width="90" height="30" as="geometry" />
        </mxCell>
        <mxCell id="zpRsEXmZ7y7rmX2nnbqE-4" value="Name" style="text;html=1;align=center;verticalAlign=middle;resizable=0;points=[];autosize=1;strokeColor=none;fillColor=none;" vertex="1" parent="zpRsEXmZ7y7rmX2nnbqE-2">
          <mxGeometry x="-5" y="68" width="60" height="30" as="geometry" />
        </mxCell>
        <mxCell id="zpRsEXmZ7y7rmX2nnbqE-6" value="Pass" style="text;html=1;align=center;verticalAlign=middle;resizable=0;points=[];autosize=1;strokeColor=none;fillColor=none;" vertex="1" parent="zpRsEXmZ7y7rmX2nnbqE-2">
          <mxGeometry y="128" width="50" height="30" as="geometry" />
        </mxCell>
        <mxCell id="zpRsEXmZ7y7rmX2nnbqE-5" value="Email" style="text;html=1;align=center;verticalAlign=middle;resizable=0;points=[];autosize=1;strokeColor=none;fillColor=none;" vertex="1" parent="zpRsEXmZ7y7rmX2nnbqE-2">
          <mxGeometry y="98" width="50" height="30" as="geometry" />
        </mxCell>
        <mxCell id="zpRsEXmZ7y7rmX2nnbqE-7" value="IsAdmin" style="text;html=1;align=center;verticalAlign=middle;whiteSpace=wrap;rounded=0;" vertex="1" parent="zpRsEXmZ7y7rmX2nnbqE-2">
          <mxGeometry x="10" y="158" width="40" height="30" as="geometry" />
        </mxCell>
        <mxCell id="zpRsEXmZ7y7rmX2nnbqE-17" value="IsActive" style="text;html=1;align=center;verticalAlign=middle;resizable=0;points=[];autosize=1;strokeColor=none;fillColor=none;" vertex="1" parent="zpRsEXmZ7y7rmX2nnbqE-2">
          <mxGeometry x="-5" y="188" width="70" height="30" as="geometry" />
        </mxCell>
        <mxCell id="zpRsEXmZ7y7rmX2nnbqE-9" value="BOOK" style="swimlane;whiteSpace=wrap;html=1;" vertex="1" parent="1">
          <mxGeometry x="50" y="440" width="200" height="220" as="geometry" />
        </mxCell>
        <mxCell id="zpRsEXmZ7y7rmX2nnbqE-10" value="BookId (FK)" style="text;html=1;align=center;verticalAlign=middle;resizable=0;points=[];autosize=1;strokeColor=none;fillColor=none;" vertex="1" parent="zpRsEXmZ7y7rmX2nnbqE-9">
          <mxGeometry y="28" width="90" height="30" as="geometry" />
        </mxCell>
        <mxCell id="zpRsEXmZ7y7rmX2nnbqE-11" value="Title" style="text;html=1;align=center;verticalAlign=middle;resizable=0;points=[];autosize=1;strokeColor=none;fillColor=none;" vertex="1" parent="zpRsEXmZ7y7rmX2nnbqE-9">
          <mxGeometry y="58" width="50" height="30" as="geometry" />
        </mxCell>
        <mxCell id="zpRsEXmZ7y7rmX2nnbqE-12" value="Author" style="text;html=1;align=center;verticalAlign=middle;resizable=0;points=[];autosize=1;strokeColor=none;fillColor=none;" vertex="1" parent="zpRsEXmZ7y7rmX2nnbqE-9">
          <mxGeometry y="85" width="60" height="30" as="geometry" />
        </mxCell>
        <mxCell id="zpRsEXmZ7y7rmX2nnbqE-13" value="PublicationYear" style="text;html=1;align=center;verticalAlign=middle;resizable=0;points=[];autosize=1;strokeColor=none;fillColor=none;" vertex="1" parent="zpRsEXmZ7y7rmX2nnbqE-9">
          <mxGeometry x="10" y="115" width="110" height="30" as="geometry" />
        </mxCell>
        <mxCell id="zpRsEXmZ7y7rmX2nnbqE-15" value="Price" style="text;html=1;align=center;verticalAlign=middle;resizable=0;points=[];autosize=1;strokeColor=none;fillColor=none;" vertex="1" parent="zpRsEXmZ7y7rmX2nnbqE-9">
          <mxGeometry y="160" width="50" height="30" as="geometry" />
        </mxCell>
        <mxCell id="zpRsEXmZ7y7rmX2nnbqE-16" value="Stock" style="text;html=1;align=center;verticalAlign=middle;resizable=0;points=[];autosize=1;strokeColor=none;fillColor=none;" vertex="1" parent="zpRsEXmZ7y7rmX2nnbqE-9">
          <mxGeometry y="180" width="50" height="30" as="geometry" />
        </mxCell>
        <mxCell id="zpRsEXmZ7y7rmX2nnbqE-14" value="Genre" style="text;html=1;align=center;verticalAlign=middle;resizable=0;points=[];autosize=1;strokeColor=none;fillColor=none;" vertex="1" parent="1">
          <mxGeometry x="60" y="488" width="60" height="30" as="geometry" />
        </mxCell>
        <mxCell id="zpRsEXmZ7y7rmX2nnbqE-18" value="CART" style="swimlane;whiteSpace=wrap;html=1;" vertex="1" parent="1">
          <mxGeometry x="530" y="30" width="200" height="200" as="geometry" />
        </mxCell>
        <mxCell id="zpRsEXmZ7y7rmX2nnbqE-19" value="CartId (PK)" style="text;html=1;align=center;verticalAlign=middle;resizable=0;points=[];autosize=1;strokeColor=none;fillColor=none;" vertex="1" parent="zpRsEXmZ7y7rmX2nnbqE-18">
          <mxGeometry x="-10" y="28" width="80" height="30" as="geometry" />
        </mxCell>
        <mxCell id="zpRsEXmZ7y7rmX2nnbqE-20" value="UserId" style="text;html=1;align=center;verticalAlign=middle;resizable=0;points=[];autosize=1;strokeColor=none;fillColor=none;" vertex="1" parent="zpRsEXmZ7y7rmX2nnbqE-18">
          <mxGeometry y="58" width="60" height="30" as="geometry" />
        </mxCell>
        <mxCell id="zpRsEXmZ7y7rmX2nnbqE-35" value="Quantity" style="text;html=1;align=center;verticalAlign=middle;resizable=0;points=[];autosize=1;strokeColor=none;fillColor=none;" vertex="1" parent="zpRsEXmZ7y7rmX2nnbqE-18">
          <mxGeometry y="118" width="70" height="30" as="geometry" />
        </mxCell>
        <mxCell id="zpRsEXmZ7y7rmX2nnbqE-36" value="IsActive" style="text;html=1;align=center;verticalAlign=middle;resizable=0;points=[];autosize=1;strokeColor=none;fillColor=none;" vertex="1" parent="zpRsEXmZ7y7rmX2nnbqE-18">
          <mxGeometry x="-10" y="148" width="70" height="30" as="geometry" />
        </mxCell>
        <mxCell id="zpRsEXmZ7y7rmX2nnbqE-34" value="BookId (FK)" style="text;html=1;align=center;verticalAlign=middle;resizable=0;points=[];autosize=1;strokeColor=none;fillColor=none;" vertex="1" parent="zpRsEXmZ7y7rmX2nnbqE-18">
          <mxGeometry x="-11" y="85" width="90" height="30" as="geometry" />
        </mxCell>
        <mxCell id="zpRsEXmZ7y7rmX2nnbqE-47" value="(FK)" style="text;html=1;align=center;verticalAlign=middle;resizable=0;points=[];autosize=1;strokeColor=none;fillColor=none;" vertex="1" parent="zpRsEXmZ7y7rmX2nnbqE-18">
          <mxGeometry x="40" y="55" width="50" height="30" as="geometry" />
        </mxCell>
        <mxCell id="zpRsEXmZ7y7rmX2nnbqE-29" value="" style="edgeStyle=orthogonalEdgeStyle;rounded=0;orthogonalLoop=1;jettySize=auto;html=1;entryX=0.5;entryY=0;entryDx=0;entryDy=0;" edge="1" parent="1" source="zpRsEXmZ7y7rmX2nnbqE-2" target="zpRsEXmZ7y7rmX2nnbqE-9">
          <mxGeometry relative="1" as="geometry">
            <mxPoint x="140" y="230" as="targetPoint" />
            <mxPoint x="360" y="220" as="sourcePoint" />
            <Array as="points">
              <mxPoint x="360" y="260" />
              <mxPoint x="141" y="260" />
              <mxPoint x="141" y="370" />
              <mxPoint x="140" y="370" />
              <mxPoint x="140" y="430" />
              <mxPoint x="150" y="430" />
            </Array>
          </mxGeometry>
        </mxCell>
        <mxCell id="zpRsEXmZ7y7rmX2nnbqE-45" style="edgeStyle=orthogonalEdgeStyle;rounded=0;orthogonalLoop=1;jettySize=auto;html=1;entryX=1;entryY=0.25;entryDx=0;entryDy=0;" edge="1" parent="1" source="zpRsEXmZ7y7rmX2nnbqE-31" target="zpRsEXmZ7y7rmX2nnbqE-37">
          <mxGeometry relative="1" as="geometry" />
        </mxCell>
        <mxCell id="zpRsEXmZ7y7rmX2nnbqE-31" value="ORDER" style="swimlane;whiteSpace=wrap;html=1;" vertex="1" parent="1">
          <mxGeometry x="520" y="300" width="200" height="200" as="geometry" />
        </mxCell>
        <mxCell id="zpRsEXmZ7y7rmX2nnbqE-24" value="OrderDate" style="text;strokeColor=none;fillColor=none;align=left;verticalAlign=middle;spacingLeft=4;spacingRight=4;overflow=hidden;points=[[0,0.5],[1,0.5]];portConstraint=eastwest;rotatable=0;whiteSpace=wrap;html=1;" vertex="1" parent="zpRsEXmZ7y7rmX2nnbqE-31">
          <mxGeometry x="10" y="85" width="80" height="30" as="geometry" />
        </mxCell>
        <mxCell id="zpRsEXmZ7y7rmX2nnbqE-23" value="UserId (FK)" style="text;strokeColor=none;fillColor=none;align=left;verticalAlign=middle;spacingLeft=4;spacingRight=4;overflow=hidden;points=[[0,0.5],[1,0.5]];portConstraint=eastwest;rotatable=0;whiteSpace=wrap;html=1;" vertex="1" parent="zpRsEXmZ7y7rmX2nnbqE-31">
          <mxGeometry x="10" y="65" width="80" height="20" as="geometry" />
        </mxCell>
        <mxCell id="zpRsEXmZ7y7rmX2nnbqE-33" value="TotalAmount" style="text;html=1;align=center;verticalAlign=middle;resizable=0;points=[];autosize=1;strokeColor=none;fillColor=none;" vertex="1" parent="zpRsEXmZ7y7rmX2nnbqE-31">
          <mxGeometry x="5" y="110" width="90" height="30" as="geometry" />
        </mxCell>
        <mxCell id="zpRsEXmZ7y7rmX2nnbqE-32" value="OrderId (PK)" style="text;html=1;align=center;verticalAlign=middle;resizable=0;points=[];autosize=1;strokeColor=none;fillColor=none;" vertex="1" parent="zpRsEXmZ7y7rmX2nnbqE-31">
          <mxGeometry x="5" y="35" width="90" height="30" as="geometry" />
        </mxCell>
        <mxCell id="zpRsEXmZ7y7rmX2nnbqE-37" value="ORDER_DETAILS" style="swimlane;whiteSpace=wrap;html=1;" vertex="1" parent="1">
          <mxGeometry x="380" y="530" width="200" height="200" as="geometry" />
        </mxCell>
        <mxCell id="zpRsEXmZ7y7rmX2nnbqE-38" value="OrderDetailId (PK)" style="text;html=1;align=center;verticalAlign=middle;resizable=0;points=[];autosize=1;strokeColor=none;fillColor=none;" vertex="1" parent="zpRsEXmZ7y7rmX2nnbqE-37">
          <mxGeometry x="5" y="40" width="120" height="30" as="geometry" />
        </mxCell>
        <mxCell id="zpRsEXmZ7y7rmX2nnbqE-39" value="OrderId (FK)" style="text;html=1;align=center;verticalAlign=middle;resizable=0;points=[];autosize=1;strokeColor=none;fillColor=none;" vertex="1" parent="zpRsEXmZ7y7rmX2nnbqE-37">
          <mxGeometry x="10" y="70" width="90" height="30" as="geometry" />
        </mxCell>
        <mxCell id="zpRsEXmZ7y7rmX2nnbqE-40" value="BookId (FK)" style="text;html=1;align=center;verticalAlign=middle;resizable=0;points=[];autosize=1;strokeColor=none;fillColor=none;" vertex="1" parent="zpRsEXmZ7y7rmX2nnbqE-37">
          <mxGeometry x="5" y="100" width="90" height="30" as="geometry" />
        </mxCell>
        <mxCell id="zpRsEXmZ7y7rmX2nnbqE-41" value="Quantity" style="text;html=1;align=center;verticalAlign=middle;resizable=0;points=[];autosize=1;strokeColor=none;fillColor=none;" vertex="1" parent="zpRsEXmZ7y7rmX2nnbqE-37">
          <mxGeometry y="130" width="70" height="30" as="geometry" />
        </mxCell>
        <mxCell id="zpRsEXmZ7y7rmX2nnbqE-42" value="Price" style="text;html=1;align=center;verticalAlign=middle;resizable=0;points=[];autosize=1;strokeColor=none;fillColor=none;" vertex="1" parent="zpRsEXmZ7y7rmX2nnbqE-37">
          <mxGeometry x="15" y="160" width="50" height="30" as="geometry" />
        </mxCell>
        <mxCell id="zpRsEXmZ7y7rmX2nnbqE-43" style="edgeStyle=orthogonalEdgeStyle;rounded=0;orthogonalLoop=1;jettySize=auto;html=1;entryX=0.033;entryY=0.733;entryDx=0;entryDy=0;entryPerimeter=0;" edge="1" parent="1" source="zpRsEXmZ7y7rmX2nnbqE-2" target="zpRsEXmZ7y7rmX2nnbqE-20">
          <mxGeometry relative="1" as="geometry" />
        </mxCell>
        <mxCell id="zpRsEXmZ7y7rmX2nnbqE-44" style="edgeStyle=orthogonalEdgeStyle;rounded=0;orthogonalLoop=1;jettySize=auto;html=1;entryX=0.55;entryY=0.015;entryDx=0;entryDy=0;entryPerimeter=0;" edge="1" parent="1" source="zpRsEXmZ7y7rmX2nnbqE-18" target="zpRsEXmZ7y7rmX2nnbqE-31">
          <mxGeometry relative="1" as="geometry" />
        </mxCell>
      </root>
    </mxGraphModel>
  </diagram>
</mxfile>
